<?xml version="1.0" encoding="utf-8"?>
<!-- Generator: Adobe Illustrator 16.0.0, SVG Export Plug-In . SVG Version: 6.00 Build 0)  -->
<!DOCTYPE svg PUBLIC "-//W3C//DTD SVG 1.1//EN" "http://www.w3.org/Graphics/SVG/1.1/DTD/svg11.dtd">
<svg version="1.1" id="Layer_1" xmlns="http://www.w3.org/2000/svg" xmlns:xlink="http://www.w3.org/1999/xlink" x="0px" y="0px"
	 width="484.58px" height="131.334px" viewBox="-149.484 37 484.58 131.334" enable-background="new -149.484 37 484.58 131.334"
	 xml:space="preserve">
<g>
	<g>
		<path fill="#1D3557" d="M6.929,47.025h11.303l14.541,41.052l14.749-41.052h11.296l-20.819,57.789H27.392L6.929,47.025z"/>
		<path fill="#1D3557" d="M86.268,62.075h10.723v42.738H86.268v-4.521c-2.093,1.993-4.19,3.428-6.291,4.298
			c-2.113,0.883-4.393,1.317-6.85,1.317c-5.524,0-10.292-2.135-14.324-6.425c-4.024-4.28-6.039-9.6-6.039-15.962
			c0-6.605,1.949-12.006,5.844-16.227c3.898-4.213,8.632-6.32,14.205-6.32c2.559,0,4.969,0.476,7.215,1.45
			c2.253,0.968,4.331,2.418,6.239,4.357V62.075z M74.999,70.869c-3.315,0-6.072,1.176-8.266,3.519
			c-2.192,2.345-3.287,5.347-3.287,9.009c0,3.7,1.113,6.737,3.347,9.115c2.23,2.39,4.978,3.579,8.24,3.579
			c3.366,0,6.162-1.172,8.381-3.517c2.216-2.343,3.324-5.41,3.324-9.211c0-3.719-1.108-6.731-3.324-9.037
			C81.196,72.023,78.388,70.869,74.999,70.869z"/>
		<path fill="#1D3557" d="M134.002,68.043l-6.647,6.641c-2.689-2.673-5.142-4.011-7.339-4.011c-1.206,0-2.149,0.25-2.829,0.77
			c-0.685,0.506-1.019,1.142-1.019,1.9c0,0.572,0.213,1.111,0.644,1.593c0.433,0.484,1.503,1.146,3.204,1.979l3.929,1.967
			c4.137,2.044,6.979,4.123,8.523,6.249c1.546,2.119,2.317,4.605,2.317,7.462c0,3.795-1.394,6.968-4.183,9.505
			c-2.787,2.537-6.53,3.81-11.215,3.81c-6.232,0-11.212-2.436-14.927-7.307l6.6-7.186c1.256,1.466,2.729,2.651,4.416,3.552
			c1.691,0.902,3.191,1.355,4.5,1.355c1.415,0,2.554-0.339,3.417-1.022c0.867-0.681,1.295-1.465,1.295-2.356
			c0-1.649-1.556-3.261-4.673-4.829l-3.615-1.808c-6.914-3.485-10.372-7.842-10.372-13.076c0-3.382,1.302-6.267,3.908-8.67
			c2.606-2.39,5.938-3.588,9.999-3.588c2.775,0,5.388,0.604,7.839,1.819C130.223,64.02,132.293,65.769,134.002,68.043z"/>
		<path fill="#1D3557" d="M144.525,46.319h10.726v15.755h6.364v9.233h-6.364v33.505h-10.726V71.308h-5.5v-9.233h5.5V46.319z"/>
		<path fill="#1D3557" d="M165.966,62.075h10.493l8.598,24.32l9.246-24.32h6.423l9.084,24.037l8.596-24.037h10.573l-15.6,42.738
			h-6.795l-9.116-24.356l-9.389,24.356h-6.719L165.966,62.075z"/>
		<path fill="#1D3557" d="M263.237,62.075h10.724v42.738h-10.724v-4.521c-2.097,1.993-4.188,3.428-6.295,4.298
			c-2.109,0.883-4.389,1.317-6.853,1.317c-5.518,0-10.292-2.135-14.321-6.425c-4.024-4.28-6.04-9.6-6.04-15.962
			c0-6.605,1.95-12.006,5.85-16.227c3.894-4.213,8.635-6.32,14.197-6.32c2.567,0,4.976,0.476,7.223,1.45
			c2.25,0.968,4.328,2.418,6.239,4.357V62.075z M251.962,70.869c-3.313,0-6.068,1.176-8.263,3.519
			c-2.188,2.345-3.288,5.347-3.288,9.009c0,3.7,1.115,6.737,3.347,9.115c2.23,2.39,4.977,3.579,8.244,3.579
			c3.364,0,6.158-1.172,8.382-3.517c2.216-2.343,3.326-5.41,3.326-9.211c0-3.719-1.11-6.731-3.326-9.037
			C258.161,72.023,255.358,70.869,251.962,70.869z"/>
		<path fill="#1D3557" d="M280.063,62.075h10.957l11.1,26.815l12.249-26.815h10.993l-26.765,58.373h-11.081l8.797-18.827
			L280.063,62.075z"/>
	</g>
	<g>
		<path fill="#1D3557" d="M8.054,127.683h4.313v22.826H8.054V127.683z"/>
		<path fill="#1D3557" d="M16.76,133.629h4.238v1.936c0.728-0.796,1.534-1.394,2.417-1.785c0.887-0.389,1.85-0.589,2.897-0.589
			c1.055,0,2.008,0.259,2.858,0.781c0.847,0.517,1.533,1.27,2.051,2.266c0.67-0.996,1.494-1.749,2.475-2.266
			c0.981-0.522,2.048-0.781,3.208-0.781c1.198,0,2.259,0.277,3.172,0.844c0.911,0.554,1.56,1.284,1.958,2.188
			c0.4,0.899,0.595,2.364,0.595,4.397v9.89h-4.263v-8.564c0-1.913-0.24-3.205-0.709-3.884c-0.479-0.675-1.196-1.021-2.146-1.021
			c-0.725,0-1.376,0.209-1.952,0.624c-0.574,0.41-1.001,0.983-1.281,1.718c-0.281,0.725-0.423,1.896-0.423,3.513v7.613h-4.265
			v-8.172c0-1.51-0.107-2.609-0.333-3.287c-0.226-0.673-0.561-1.181-1-1.51c-0.451-0.336-0.988-0.499-1.622-0.499
			c-0.706,0-1.346,0.209-1.923,0.63c-0.577,0.422-1.007,1.007-1.289,1.761c-0.29,0.756-0.431,1.945-0.431,3.573v7.503H16.76V133.629
			z"/>
		<path fill="#1D3557" d="M46.642,133.629h4.236v1.936c0.722-0.796,1.531-1.394,2.414-1.785c0.886-0.389,1.85-0.589,2.899-0.589
			c1.051,0,2.007,0.259,2.857,0.781c0.846,0.517,1.529,1.27,2.048,2.266c0.675-0.996,1.497-1.749,2.478-2.266
			c0.982-0.522,2.043-0.781,3.211-0.781c1.197,0,2.254,0.277,3.167,0.844c0.911,0.554,1.564,1.284,1.963,2.188
			c0.399,0.899,0.597,2.364,0.597,4.397v9.89h-4.267v-8.564c0-1.913-0.236-3.205-0.713-3.884c-0.478-0.675-1.189-1.021-2.143-1.021
			c-0.72,0-1.374,0.209-1.947,0.624c-0.573,0.41-1.002,0.983-1.278,1.718c-0.283,0.725-0.424,1.896-0.424,3.513v7.613h-4.266v-8.172
			c0-1.51-0.109-2.609-0.338-3.287c-0.218-0.673-0.558-1.181-1.004-1.51c-0.439-0.336-0.982-0.499-1.613-0.499
			c-0.703,0-1.345,0.209-1.924,0.63c-0.572,0.422-1.006,1.007-1.292,1.761c-0.284,0.756-0.427,1.945-0.427,3.573v7.503h-4.237
			v-16.877H46.642z"/>
		<path fill="#1D3557" d="M78.208,126.671c0.736,0,1.373,0.271,1.907,0.804c0.528,0.544,0.796,1.194,0.796,1.957
			c0,0.764-0.263,1.405-0.792,1.937c-0.523,0.539-1.157,0.801-1.887,0.801c-0.759,0-1.393-0.269-1.928-0.814
			c-0.533-0.541-0.798-1.201-0.798-1.978c0-0.751,0.258-1.385,0.792-1.907C76.827,126.936,77.459,126.671,78.208,126.671z
			 M76.086,133.629h4.236v16.88h-4.236V133.629z"/>
		<path fill="#1D3557" d="M96.648,133.629h4.219v14.458c0,2.86-0.568,4.961-1.721,6.309c-1.541,1.82-3.861,2.729-6.965,2.729
			c-1.657,0-3.053-0.209-4.181-0.613c-1.124-0.421-2.073-1.028-2.853-1.826c-0.779-0.803-1.348-1.78-1.724-2.928h4.677
			c0.407,0.466,0.942,0.83,1.594,1.079c0.653,0.243,1.422,0.364,2.311,0.364c1.14,0,2.057-0.173,2.754-0.529
			c0.689-0.349,1.178-0.803,1.462-1.361c0.288-0.564,0.429-1.521,0.429-2.887c-0.745,0.746-1.521,1.277-2.342,1.607
			c-0.82,0.323-1.746,0.479-2.781,0.479c-2.265,0-4.178-0.81-5.742-2.446c-1.56-1.635-2.342-3.701-2.342-6.207
			c0-2.682,0.826-4.835,2.487-6.456c1.495-1.47,3.285-2.208,5.368-2.208c0.971,0,1.887,0.184,2.75,0.54
			c0.867,0.357,1.73,0.946,2.604,1.758v-1.861H96.648z M92.258,137.146c-1.333,0-2.438,0.454-3.307,1.351
			c-0.869,0.894-1.303,2.017-1.303,3.37c0,1.407,0.447,2.562,1.335,3.464c0.888,0.899,2.011,1.348,3.353,1.348
			c1.314,0,2.397-0.438,3.254-1.319c0.854-0.878,1.282-2.03,1.282-3.454c0-1.407-0.432-2.557-1.297-3.435
			C94.72,137.597,93.612,137.146,92.258,137.146z"/>
		<path fill="#1D3557" d="M104.167,133.629h3.627v2.123c0.391-0.838,0.912-1.473,1.564-1.904c0.653-0.436,1.362-0.657,2.144-0.657
			c0.556,0,1.123,0.143,1.724,0.438l-1.322,3.65c-0.495-0.255-0.899-0.373-1.224-0.373c-0.65,0-1.204,0.405-1.654,1.207
			c-0.445,0.806-0.673,2.387-0.673,4.752l0.012,0.822v6.821h-4.199v-16.88H104.167z"/>
		<path fill="#1D3557" d="M127.786,133.629h4.235v16.88h-4.235v-1.774c-0.83,0.778-1.658,1.344-2.49,1.695
			c-0.831,0.349-1.731,0.518-2.703,0.518c-2.182,0-4.067-0.845-5.656-2.533c-1.596-1.693-2.391-3.8-2.391-6.312
			c0-2.61,0.769-4.738,2.309-6.405c1.542-1.668,3.414-2.505,5.611-2.505c1.013,0,1.965,0.196,2.853,0.579
			c0.887,0.386,1.709,0.957,2.468,1.718V133.629z M123.328,137.105c-1.302,0-2.395,0.467-3.26,1.391
			c-0.867,0.918-1.302,2.117-1.302,3.554c0,1.463,0.444,2.664,1.324,3.607c0.883,0.942,1.968,1.415,3.255,1.415
			c1.332,0,2.436-0.469,3.31-1.394c0.881-0.925,1.314-2.141,1.314-3.638c0-1.465-0.434-2.66-1.314-3.572
			C125.781,137.563,124.67,137.105,123.328,137.105z"/>
		<path fill="#1D3557" d="M136.82,127.402h4.235v6.227h2.516v3.65h-2.516v13.229h-4.235v-13.229h-2.178v-3.65h2.178V127.402z"/>
		<path fill="#1D3557" d="M147.489,126.671c0.743,0,1.379,0.271,1.91,0.804c0.534,0.544,0.8,1.194,0.8,1.957
			c0,0.764-0.258,1.405-0.79,1.937c-0.527,0.539-1.157,0.801-1.888,0.801c-0.754,0-1.396-0.269-1.927-0.814
			c-0.531-0.541-0.798-1.201-0.798-1.978c0-0.751,0.261-1.385,0.789-1.907C146.114,126.936,146.748,126.671,147.489,126.671z
			 M145.369,133.629h4.239v16.88h-4.239V133.629z"/>
		<path fill="#1D3557" d="M161.387,133.19c1.598,0,3.096,0.401,4.497,1.199c1.401,0.799,2.493,1.878,3.278,3.242
			c0.79,1.363,1.186,2.838,1.186,4.418c0,1.597-0.405,3.089-1.188,4.476c-0.794,1.388-1.871,2.474-3.24,3.252
			c-1.365,0.781-2.869,1.17-4.516,1.17c-2.419,0-4.484-0.858-6.2-2.583c-1.716-1.721-2.566-3.818-2.566-6.275
			c0-2.644,0.965-4.841,2.899-6.604C157.232,133.956,159.184,133.19,161.387,133.19z M161.453,137.183
			c-1.316,0-2.408,0.455-3.284,1.373c-0.875,0.918-1.316,2.085-1.316,3.517c0,1.466,0.434,2.657,1.302,3.566
			c0.863,0.912,1.96,1.368,3.287,1.368c1.328,0,2.431-0.456,3.309-1.384c0.883-0.922,1.328-2.102,1.328-3.553
			c0-1.446-0.439-2.625-1.301-3.532C163.915,137.638,162.805,137.183,161.453,137.183z"/>
		<path fill="#1D3557" d="M173.811,133.629h4.232v1.734c0.959-0.813,1.827-1.38,2.608-1.693c0.786-0.314,1.581-0.48,2.396-0.48
			c1.679,0,3.091,0.588,4.264,1.759c0.979,0.996,1.474,2.462,1.474,4.41v11.15h-4.188v-7.392c0-2.01-0.095-3.354-0.272-4.016
			c-0.179-0.663-0.495-1.166-0.946-1.505c-0.451-0.349-1.002-0.525-1.665-0.525c-0.855,0-1.59,0.293-2.207,0.858
			c-0.615,0.579-1.042,1.368-1.274,2.385c-0.122,0.525-0.188,1.668-0.188,3.424v6.769h-4.232V133.629z"/>
		<path fill="#1D3557" d="M214.225,130.792l-3.223,2.837c-1.131-1.573-2.275-2.355-3.449-2.355c-0.571,0-1.04,0.147-1.396,0.45
			c-0.364,0.308-0.548,0.649-0.548,1.032c0,0.379,0.13,0.748,0.392,1.09c0.352,0.454,1.414,1.43,3.184,2.929
			c1.659,1.391,2.664,2.262,3.019,2.626c0.883,0.888,1.507,1.739,1.872,2.552c0.372,0.813,0.559,1.694,0.559,2.661
			c0,1.878-0.653,3.419-1.946,4.646c-1.296,1.222-2.987,1.827-5.065,1.827c-1.629,0-3.038-0.406-4.251-1.195
			c-1.206-0.79-2.238-2.044-3.097-3.754l3.649-2.205c1.097,2.021,2.363,3.029,3.796,3.029c0.746,0,1.366-0.219,1.879-0.649
			c0.506-0.444,0.763-0.941,0.763-1.506c0-0.522-0.19-1.038-0.576-1.557c-0.389-0.519-1.228-1.312-2.536-2.374
			c-2.486-2.027-4.089-3.598-4.817-4.698c-0.722-1.097-1.089-2.201-1.089-3.294c0-1.584,0.604-2.939,1.809-4.075
			c1.213-1.136,2.701-1.698,4.476-1.698c1.14,0,2.223,0.262,3.255,0.791C211.906,128.429,213.021,129.394,214.225,130.792z"/>
		<path fill="#1D3557" d="M235.218,143.295h-13.602c0.19,1.197,0.715,2.159,1.571,2.866c0.849,0.707,1.945,1.067,3.265,1.067
			c1.58,0,2.943-0.558,4.084-1.668l3.567,1.682c-0.89,1.261-1.954,2.191-3.199,2.804c-1.241,0.606-2.707,0.901-4.417,0.901
			c-2.647,0-4.807-0.829-6.474-2.503c-1.67-1.669-2.5-3.763-2.5-6.279c0-2.577,0.83-4.711,2.49-6.413
			c1.668-1.705,3.749-2.558,6.245-2.558c2.661,0,4.833,0.853,6.495,2.558c1.661,1.702,2.495,3.949,2.495,6.738L235.218,143.295z
			 M230.982,139.959c-0.276-0.939-0.829-1.706-1.659-2.296c-0.814-0.592-1.773-0.888-2.862-0.888c-1.183,0-2.217,0.336-3.109,0.996
			c-0.559,0.417-1.076,1.145-1.554,2.188H230.982z"/>
		<path fill="#1D3557" d="M237.664,133.629h3.628v2.123c0.396-0.838,0.915-1.473,1.565-1.904c0.657-0.436,1.361-0.657,2.141-0.657
			c0.552,0,1.124,0.143,1.729,0.438l-1.321,3.65c-0.5-0.255-0.907-0.373-1.228-0.373c-0.65,0-1.208,0.405-1.649,1.207
			c-0.455,0.806-0.676,2.387-0.676,4.752l0.016,0.822v6.821h-4.204V133.629L237.664,133.629z"/>
		<path fill="#1D3557" d="M247.009,133.629h4.323l4.26,9.962l4.264-9.962h4.288l-7.188,16.88h-2.742L247.009,133.629z"/>
		<path fill="#1D3557" d="M268.275,126.671c0.74,0,1.378,0.271,1.911,0.804c0.529,0.544,0.796,1.194,0.796,1.957
			c0,0.764-0.258,1.405-0.79,1.937c-0.529,0.539-1.154,0.801-1.883,0.801c-0.756,0-1.4-0.269-1.927-0.814
			c-0.537-0.541-0.799-1.201-0.799-1.978c0-0.751,0.262-1.385,0.786-1.907C266.894,126.936,267.528,126.671,268.275,126.671z
			 M266.156,133.629h4.238v16.88h-4.238V133.629z"/>
		<path fill="#1D3557" d="M290.771,137.04l-3.529,1.945c-0.659-0.697-1.316-1.178-1.96-1.443c-0.654-0.272-1.407-0.405-2.281-0.405
			c-1.578,0-2.87,0.474-3.844,1.42c-0.978,0.943-1.469,2.155-1.469,3.627c0,1.441,0.473,2.612,1.413,3.52
			c0.946,0.909,2.185,1.369,3.713,1.369c1.9,0,3.379-0.647,4.428-1.944l3.342,2.29c-1.805,2.354-4.365,3.529-7.664,3.529
			c-2.969,0-5.296-0.875-6.979-2.638c-1.681-1.759-2.518-3.817-2.518-6.177c0-1.634,0.407-3.142,1.223-4.512
			c0.818-1.383,1.964-2.462,3.423-3.243c1.457-0.794,3.104-1.186,4.91-1.186c1.678,0,3.178,0.336,4.52,1.003
			C288.836,134.868,289.925,135.808,290.771,137.04z"/>
		<path fill="#1D3557" d="M311.515,143.295h-13.61c0.186,1.197,0.719,2.159,1.569,2.866c0.85,0.707,1.943,1.067,3.263,1.067
			c1.59,0,2.943-0.558,4.085-1.668l3.57,1.682c-0.896,1.261-1.957,2.191-3.205,2.804c-1.234,0.606-2.707,0.901-4.415,0.901
			c-2.647,0-4.812-0.829-6.474-2.503c-1.671-1.669-2.505-3.763-2.505-6.279c0-2.577,0.834-4.711,2.493-6.413
			c1.664-1.705,3.749-2.558,6.248-2.558c2.667,0,4.823,0.853,6.485,2.558c1.668,1.702,2.498,3.949,2.498,6.738L311.515,143.295z
			 M307.273,139.959c-0.283-0.939-0.834-1.706-1.652-2.296c-0.83-0.592-1.789-0.888-2.876-0.888c-1.179,0-2.213,0.336-3.105,0.996
			c-0.566,0.417-1.076,1.145-1.556,2.188H307.273z"/>
		<path fill="#1D3557" d="M325.272,135.982l-2.62,2.63c-1.067-1.063-2.032-1.588-2.9-1.588c-0.476,0-0.849,0.109-1.12,0.309
			c-0.268,0.198-0.397,0.447-0.397,0.75c0,0.228,0.08,0.438,0.251,0.628c0.17,0.192,0.588,0.448,1.267,0.781l1.55,0.784
			c1.637,0.797,2.757,1.628,3.367,2.465c0.613,0.841,0.918,1.823,0.918,2.95c0,1.495-0.548,2.753-1.649,3.752
			c-1.104,1.005-2.58,1.504-4.438,1.504c-2.455,0-4.428-0.962-5.895-2.885l2.614-2.838c0.49,0.575,1.068,1.039,1.74,1.406
			c0.66,0.356,1.265,0.537,1.773,0.537c0.566,0,1.008-0.136,1.355-0.41c0.339-0.267,0.512-0.579,0.512-0.926
			c0-0.66-0.619-1.289-1.847-1.91l-1.429-0.715c-2.729-1.375-4.1-3.099-4.1-5.169c0-1.332,0.52-2.481,1.546-3.426
			c1.03-0.939,2.347-1.42,3.952-1.42c1.097,0,2.122,0.243,3.096,0.722C323.779,134.398,324.604,135.083,325.272,135.982z"/>
	</g>
</g>
<g>
	<polygon fill="#1D3557" points="-85.528,92.944 -78.88,88.961 -103.027,46.878 -139.751,46.878 -76.357,158.122 -57.697,125.682 
		-70.244,103.867 -92.238,118.52 	"/>
	<polygon fill="#E63A47" points="-12.908,47.649 -84.346,70.813 -75.205,86.997 -30.837,62.661 -82.393,95.848 -86.375,110.006 
		-68.566,98.389 -55.341,121.373 	"/>
</g>
</svg>
